HIERARCHY
ROOT SpineBase
{
  OFFSET 0.000000 0.000000 0.000000
  CHANNELS 6 Xposition Yposition Zposition Zrotation Xrotation Yrotation
  JOINT SpineMid
  {
    OFFSET -0.000000 26.491008 0.000000
    CHANNELS 3 Zrotation Xrotation Yrotation
    JOINT SpineShoulder
    {
      OFFSET 0.006440 19.848236 -0.720897
      CHANNELS 3 Zrotation Xrotation Yrotation
      JOINT Neck
      {
        OFFSET -0.013733 6.637137 -0.543723
        CHANNELS 3 Zrotation Xrotation Yrotation
        JOINT Head
        {
          OFFSET -4.432693 13.011756 1.885042
          CHANNELS 3 Zrotation Xrotation Yrotation
          End Site
          {
            OFFSET 0 0 0
          }
        }
      }
      JOINT ShoulderLeft
      {
        OFFSET -12.727634 -4.554226 11.724828
        CHANNELS 3 Zrotation Xrotation Yrotation
        JOINT ElbowLeft
        {
          OFFSET -0.484024 -21.825626 -3.143144
          CHANNELS 3 Zrotation Xrotation Yrotation
          JOINT WristLeft
          {
            OFFSET -9.526554 -12.615059 -17.882688
            CHANNELS 3 Zrotation Xrotation Yrotation
            JOINT HandLeft
            {
              OFFSET -0.484972 -0.867792 -6.371897
              CHANNELS 3 Zrotation Xrotation Yrotation
              JOINT HandTipLeft
              {
                OFFSET -3.199213 -1.541086 -7.804979
                CHANNELS 3 Zrotation Xrotation Yrotation
                End Site
                {
                  OFFSET 0 0 0
                }
              }
              JOINT ThumbLeft
              {
                OFFSET -0.045699 0.346408 -7.160678
                CHANNELS 3 Zrotation Xrotation Yrotation
                End Site
                {
                  OFFSET 0 0 0
                }
              }
            }
          }
        }
      }
      JOINT ShoulderRight
      {
        OFFSET 9.440567 -1.481843 -11.676628
        CHANNELS 3 Zrotation Xrotation Yrotation
        JOINT ElbowRight
        {
          OFFSET 2.983426 -17.327340 -7.283391
          CHANNELS 3 Zrotation Xrotation Yrotation
          JOINT WristRight
          {
            OFFSET -10.771893 -18.823502 -11.260846
            CHANNELS 3 Zrotation Xrotation Yrotation
            JOINT HandRight
            {
              OFFSET -0.638377 -2.913686 -3.223815
              CHANNELS 3 Zrotation Xrotation Yrotation
              JOINT HandTipRight
              {
                OFFSET -1.344160 -4.680093 -7.597501
                CHANNELS 3 Zrotation Xrotation Yrotation
                End Site
                {
                  OFFSET 0 0 0
                }
              }
              JOINT ThumbRight
              {
                OFFSET 2.142775 -3.239099 -1.520867
                CHANNELS 3 Zrotation Xrotation Yrotation
                End Site
                {
                  OFFSET 0 0 0
                }
              }
            }
          }
        }
      }
    }
  }
  JOINT HipLeft
  {
    OFFSET -5.713632 0.288611 2.303243
    CHANNELS 3 Zrotation Xrotation Yrotation
    JOINT KneeLeft
    {
      OFFSET -23.985162 1.265078 -26.231262
      CHANNELS 3 Zrotation Xrotation Yrotation
      JOINT AnkleLeft
      {
        OFFSET 0.162729 -35.609402 9.677790
        CHANNELS 3 Zrotation Xrotation Yrotation
        JOINT FootLeft
        {
          OFFSET -6.449846 -3.354750 -9.221922
          CHANNELS 3 Zrotation Xrotation Yrotation
          End Site
          {
            OFFSET 0 0 0
          }
        }
      }
    }
  }
  JOINT HipRight
  {
    OFFSET 5.498456 2.208912 -8.730413
    CHANNELS 3 Zrotation Xrotation Yrotation
    JOINT KneeRight
    {
      OFFSET -8.911382 0.135519 -32.785545
      CHANNELS 3 Zrotation Xrotation Yrotation
      JOINT AnkleRight
      {
        OFFSET 11.322270 -32.503821 -8.581157
        CHANNELS 3 Zrotation Xrotation Yrotation
        JOINT FootRight
        {
          OFFSET -4.714088 -4.003415 -9.539688
          CHANNELS 3 Zrotation Xrotation Yrotation
          End Site
          {
            OFFSET 0 0 0
          }
        }
      }
    }
  }
}
MOTION
Frames: 13
Frame Time: 0.033333
10.102774 47.601718 370.560769 -1.913542 -2.958056 16.746382 0.381002 -0.722742 -16.865316 -0.410683 -0.169455 -0.093088 -11.573497 1.147151 1.804938 0.000000 0.000000 0.000000 -30.620905 55.256401 19.935495 43.891473 -18.365947 -21.964075 0.377662 -26.783012 18.967351 -0.531546 10.857320 -22.426232 0.000000 0.000000 0.000000 0.000000 0.000000 0.000000 17.210694 38.588180 -5.195778 -50.632286 9.012780 -10.631067 -7.903160 -23.309868 26.754027 25.472509 -0.152068 -9.682903 0.000000 0.000000 0.000000 0.000000 0.000000 0.000000 8.954608 -5.670715 1.341527 0.215276 19.832835 -18.441403 3.591710 -23.800673 8.811646 0.000000 0.000000 0.000000 2.162527 -3.840539 -22.907052 1.735297 7.090510 5.065022 11.171676 -26.455422 -0.781049 0.000000 0.000000 0.000000
9.857380 47.471801 370.746802 -2.283971 -4.661898 13.393172 0.528307 -0.504322 -13.574966 0.048713 -0.060547 -0.085885 -5.440372 3.450736 1.078058 0.000000 0.000000 0.000000 -45.721612 70.647139 36.692053 48.670844 -20.831386 -21.381411 4.553155 -31.583659 23.666362 -4.524227 15.254153 -21.054773 0.000000 0.000000 0.000000 0.000000 0.000000 0.000000 14.115981 47.592170 -2.826954 -48.330667 19.692741 -17.017528 -12.766833 -18.740493 30.053493 35.645741 -12.307710 -11.369876 0.000000 0.000000 0.000000 0.000000 0.000000 0.000000 14.431769 -5.427884 19.362433 8.486829 25.447348 -35.687301 6.980291 -38.304993 22.617109 0.000000 0.000000 0.000000 3.149668 -0.713807 -20.055111 1.718930 6.580772 5.921162 10.502744 -25.815054 -1.323342 0.000000 0.000000 0.000000
9.673969 47.026668 370.939404 -2.837533 -6.395206 10.444173 1.059961 -0.369889 -10.725546 0.021795 0.125451 -0.090726 0.837459 5.029686 -0.220048 0.000000 0.000000 0.000000 -94.725391 79.658122 87.547430 51.662727 -22.871569 -19.575635 11.609696 -33.631080 22.042684 -11.925742 18.549838 -15.995203 0.000000 0.000000 0.000000 0.000000 0.000000 0.000000 3.830019 55.997860 5.904831 -40.999500 30.690925 -23.020917 -10.434252 -19.021885 30.801184 39.115535 -17.252897 -7.776723 0.000000 0.000000 0.000000 0.000000 0.000000 0.000000 18.628649 -3.759096 30.761942 14.368639 26.771991 -46.775902 8.556100 -44.397451 28.997047 0.000000 0.000000 0.000000 3.989146 3.375973 -17.349993 1.928765 5.292897 6.536529 11.077861 -27.243947 -1.708750 0.000000 0.000000 0.000000
9.572050 46.323426 370.975723 -1.932518 -7.566857 6.514129 0.970056 -0.202197 -6.738307 -0.105288 0.313816 -0.058561 4.537810 4.445409 -1.808456 0.000000 0.000000 0.000000 -155.180534 74.647403 149.368307 50.665440 -25.586918 -17.363247 18.077508 -30.312531 14.457285 -21.285487 15.186039 -7.141250 0.000000 0.000000 0.000000 0.000000 0.000000 0.000000 -14.680124 60.106477 21.474205 -32.847405 42.217916 -26.342336 -5.151015 -23.331712 31.504967 45.280273 -9.876175 -5.688852 0.000000 0.000000 0.000000 0.000000 0.000000 0.000000 18.506696 -1.028831 36.537984 15.413128 25.954322 -49.277615 8.354429 -44.852934 30.153369 0.000000 0.000000 0.000000 2.799268 7.003397 -13.255573 2.492689 3.580953 6.619650 11.689478 -28.551838 -1.374054 0.000000 0.000000 0.000000
9.131203 45.878198 371.074497 -0.419616 -7.818859 9.914873 1.016243 -0.057672 -9.987529 -0.260907 0.457107 0.004496 6.041900 2.853748 -2.931488 0.000000 0.000000 0.000000 -170.352825 63.023179 163.371839 62.870201 -30.226317 -7.197484 14.395608 -25.138316 6.774942 -25.886606 11.064281 -5.765696 0.000000 0.000000 0.000000 0.000000 0.000000 0.000000 -32.539197 56.599219 34.903695 -23.359176 54.836792 -26.752959 -8.639659 -32.411003 29.377909 37.559595 -10.327409 -0.668108 0.000000 0.000000 0.000000 0.000000 0.000000 0.000000 13.922859 -0.723565 26.278972 10.292595 24.221263 -40.136366 7.239174 -39.293312 24.121885 0.000000 0.000000 0.000000 1.722326 8.350016 -17.098616 2.757180 2.355947 7.194807 12.200788 -28.891242 -1.597858 0.000000 0.000000 0.000000
8.633787 46.597864 370.960573 1.599574 -8.748912 12.586357 0.728676 0.333321 -12.438142 -0.478677 0.539464 0.069576 7.619338 5.444037 -3.136256 0.000000 0.000000 0.000000 178.876392 59.582652 175.974355 67.801681 -29.997003 -7.934069 19.370158 -25.321075 1.738181 -34.765554 4.760992 0.987488 0.000000 0.000000 0.000000 0.000000 0.000000 0.000000 -42.075946 51.116860 40.370731 -22.221848 73.436206 -20.801986 -5.491672 -42.587636 27.857769 25.641769 -12.008736 2.630578 0.000000 0.000000 0.000000 0.000000 0.000000 0.000000 13.921656 -1.969587 22.379507 9.201921 26.165750 -38.942234 5.104544 -38.154501 24.064741 0.000000 0.000000 0.000000 0.299200 8.520858 -20.729376 2.450718 2.021060 7.916473 12.644099 -27.824976 -1.647090 0.000000 0.000000 0.000000
7.493657 45.102460 371.343050 0.993493 -10.905374 7.782482 0.605123 0.570215 -7.688075 -0.255713 0.391004 0.042314 8.857144 10.657748 -2.867561 0.000000 0.000000 0.000000 179.666857 55.650156 175.439551 65.289403 -21.747353 -16.565289 25.704114 -20.818571 1.167291 -29.579624 -8.016899 5.075892 0.000000 0.000000 0.000000 0.000000 0.000000 0.000000 -52.485792 53.029155 51.181036 4.247179 79.592209 -42.569317 -16.500649 -41.622184 22.400628 22.169746 -24.490462 3.055202 0.000000 0.000000 0.000000 0.000000 0.000000 0.000000 11.950013 3.466909 26.061893 10.975795 21.930822 -37.511557 4.794225 -38.573241 23.960300 0.000000 0.000000 0.000000 0.389480 12.376825 -17.890928 3.086123 0.413702 9.906232 13.007918 -28.491180 -1.537651 0.000000 0.000000 0.000000
6.314041 44.759802 371.918772 3.074048 -11.916154 8.399447 0.813508 0.832241 -8.042394 -0.942626 -0.144531 0.158757 2.844214 13.540843 -1.089860 0.000000 0.000000 0.000000 -179.563611 54.850205 172.115187 64.769813 -18.542176 -18.669425 30.411064 -23.555336 6.949454 -26.001791 -1.176749 -1.786909 0.000000 0.000000 0.000000 0.000000 0.000000 0.000000 -58.034411 50.241084 54.200703 38.595226 81.274395 -70.032654 -50.857853 -44.081955 -3.465535 38.050294 -29.260993 4.169749 0.000000 0.000000 0.000000 0.000000 0.000000 0.000000 8.715520 5.473215 23.730831 11.660140 20.568713 -35.008665 5.004382 -39.420800 24.408753 0.000000 0.000000 0.000000 -1.429203 13.859504 -20.096608 3.150636 0.423225 11.931697 13.279143 -29.157623 -1.001350 0.000000 0.000000 0.000000
5.519832 44.743881 372.275556 7.134137 -12.342581 10.502830 0.267633 0.517654 -9.519231 -0.428892 0.182116 0.296650 -1.688347 19.569554 0.756331 0.000000 0.000000 0.000000 -174.386967 60.411127 160.269486 59.747890 -12.173036 -23.867766 25.656189 -21.789225 9.218028 -20.361083 -4.111100 -1.879227 0.000000 0.000000 0.000000 0.000000 0.000000 0.000000 -60.322302 40.781981 49.407211 50.188604 84.083601 -73.054344 -81.217955 -46.529108 -30.884692 63.914560 -10.363915 2.928081 0.000000 0.000000 0.000000 0.000000 0.000000 0.000000 3.854813 7.194216 21.188511 12.037357 19.831569 -33.445416 6.464395 -40.546842 24.437511 0.000000 0.000000 0.000000 -4.959066 14.593419 -22.857992 3.007953 1.011062 13.463843 13.428742 -29.631103 -0.857390 0.000000 0.000000 0.000000
4.880424 44.128327 372.501956 11.593603 -11.331222 12.886252 -0.103549 0.085484 -11.310362 -0.183399 0.386443 0.452795 -7.531404 23.706060 2.862888 0.000000 0.000000 0.000000 -146.839797 63.947412 121.013029 55.034182 -0.558916 -24.139116 15.126952 -26.593586 23.482578 -11.106100 8.163266 -18.527060 0.000000 0.000000 0.000000 0.000000 0.000000 0.000000 -68.715387 29.662847 48.728857 28.604979 75.744920 -38.880490 -122.447382 -53.105661 -76.531733 83.664036 22.751978 -18.852344 0.000000 0.000000 0.000000 0.000000 0.000000 0.000000 -2.185474 8.654083 19.642903 13.196341 18.270127 -32.777113 8.504062 -42.259923 24.678993 0.000000 0.000000 0.000000 -9.014791 15.237697 -25.722375 3.308080 0.818077 14.854082 13.405174 -30.030831 -1.081976 0.000000 0.000000 0.000000
4.621349 43.538883 372.642795 15.836956 -9.224944 14.992098 -0.358997 -0.144238 -13.084998 0.013385 0.677420 0.587158 -7.223738 25.592506 1.971844 0.000000 0.000000 0.000000 -116.177438 54.057968 75.333063 50.073095 7.530471 -14.771309 9.387872 -31.760765 36.025977 6.083970 21.143192 -39.680730 0.000000 0.000000 0.000000 0.000000 0.000000 0.000000 -73.794070 15.842514 42.430712 22.966593 64.352216 -21.689085 -74.268242 -80.463497 -41.498028 75.285779 48.707319 -31.544904 0.000000 0.000000 0.000000 0.000000 0.000000 0.000000 -8.226328 9.425898 18.713847 14.371042 16.899386 -32.743075 10.733608 -43.944994 24.838857 0.000000 0.000000 0.000000 -13.129254 14.878034 -27.874545 3.640426 0.734399 15.440211 13.341100 -30.407287 -1.390606 0.000000 0.000000 0.000000
4.713582 43.028038 372.676550 19.718063 -6.277797 16.679771 0.029897 -0.197822 -14.835818 0.391600 0.861781 0.745325 -4.506095 26.172487 -0.226492 0.000000 0.000000 0.000000 -98.759247 34.478856 41.337012 48.844381 17.121850 -7.544355 6.910670 -25.988338 36.168973 4.410159 17.485591 -32.780219 0.000000 0.000000 0.000000 0.000000 0.000000 0.000000 -80.047593 4.681244 35.772769 27.243026 49.480437 -16.456124 -2.708247 -59.483355 24.969062 72.950483 57.776169 -39.714080 0.000000 0.000000 0.000000 0.000000 0.000000 0.000000 -13.882017 9.364221 18.116243 15.335150 15.803850 -33.206033 12.593763 -45.175320 24.341869 0.000000 0.000000 0.000000 -17.207609 13.681355 -29.463448 3.905201 0.853844 15.416359 15.514836 -34.295213 -0.782279 0.000000 0.000000 0.000000
4.782237 42.849330 372.693349 23.176687 -3.989845 18.183897 0.255142 -0.140473 -16.500157 0.324806 0.875495 0.900957 -2.490856 27.012986 -1.781951 0.000000 0.000000 0.000000 -94.946056 27.878215 30.794528 40.177904 14.556284 0.491048 9.583689 -20.128778 32.224094 -1.305848 12.889310 -21.778233 0.000000 0.000000 0.000000 0.000000 0.000000 0.000000 -85.648527 -1.426107 31.522536 32.039248 41.778872 -15.625028 -0.552571 -48.823798 25.615037 78.844473 60.675775 -48.640296 0.000000 0.000000 0.000000 0.000000 0.000000 0.000000 -18.013157 9.017074 16.907371 15.713766 15.672270 -33.402323 12.655736 -45.392128 23.764326 0.000000 0.000000 0.000000 -20.836067 12.941228 -30.638246 4.222930 0.878408 14.942337 13.722330 -31.915304 -1.141533 0.000000 0.000000 0.000000
